<?xml version="1.0" encoding="UTF-8"?>
<svg xmlns="http://www.w3.org/2000/svg" viewBox="0 0 612 612">
    <defs>
        <style>
            .d{fill:#a2958d;}.d,.e,.f,.g,.h,.i,.j,.k,.l,.m{stroke-width:0px;}.e{fill:#e5e5e5;}.f{fill:#42425b;}.g{fill:#fbefd7;}.h{fill:#fdd7bd;}.i{fill:#853d4b;}.j{fill:#d04927;}.k{fill:#2f323a;}.l{fill:#634938;}.m{fill:#efe4ac;}</style>
    </defs>
    <g id="a">
        <rect class="g" width="612" height="792" />
        <path class="l"
            d="m437.53,506.67s82.02,49.12,95.09,57.32,15.19,9.42,15.49,17.92-6.99,10.94-10.94,11.54-32.2,2.73-32.2,2.73c0,0-401.62,33.42-418.33,34.03s-16.1-6.08-18.84-14.58-17.01-54.68-18.84-59.24-.91-13.37-.91-17.62,1.52-8.51,13.06-8.51l158.89-10.86,217.52-12.74Z" />
    </g>
    <g id="b">
        <path class="h"
            d="m329.38,724.01s-18.46-21.19-25.29-28.25-33.27-36.23-44.89-48.99l36.23-27.11,32.58-11.85,23.24,2.96,10.94,11.62c6.61,14.81,23.7,61.52,29.16,76.78s11.62,32.35,9.57,44.89-8.2,14.58-19.82,25.29-32.58,22.33-37.82,35.32l-85.44-.91c2.28-5.7,13.67-20.96,27.34-32.35s43.06-22.78,47.85-32.35c0,0-3.65-7.06-3.65-15.04Z" />
        <path class="h"
            d="m363.41,611.68c4.25,18.84,11.54,48,11.54,48l17.32,91.14s.61.89,3.34,5.46,9.42,20.06,10.03,26.44,3.04,24.3,3.04,24.3l64.1-.3v-4.56c-1.82-18.23-16.1-46.48-20.35-56.51s-6.99-29.77-5.16-55.59,12.46-74.43,11.54-100.86l-18.23-5.77-25.82,2.13-25.82,16.71-13.97,1.82-11.54,7.59Z" />
        <path class="h"
            d="m499.92,587.53s2.62-1.94,4.67-3.08c3.99-1.25,3.19-5.24,2.96-9,0,0,3.08-3.99,4.33-5.7s-.11-4.9-.8-5.58-3.76-8.2-4.56-9.34-7.29-1.14-10.94-1.48c0,0-6.04-3.53-8.66-3.87l-15.72-7.52s-1.94-1.82-2.73-1.48-9.11,9.34-11.9,13.06c-.97,13.03,2.92,32.21,4.49,32.32s4.1-1.22,6.23,1.52,8.05,7.29,9.57,6.84,3.19-3.49,2.28-6.99-7.29-7.75-8.66-7.75c-.46-1.52-1.22-5.16-3.95-7.29,4.25,2.13,7.75,3.34,9.42,3.19,1.06,2.43,2.58,5.77,3.95,6.23-1.63,2.28-12.8,12.76-12.57,16.06s1.37,4.44,6.61,2.62c3.85-1.34,5.55-2.13,6.95-3.53-.68,2.51-.8,4.1,2.51,3.65,1.37-.23,2.62-.46,3.3-2.28s6.04-4.56,9.68-6.04,3.3-2.39,3.53-4.56Z" />
        <path class="h"
            d="m139.66,560.49c4.56-.15,17.47-13.52,17.47-13.52,0,0,1.97-.46,6.99-.61s4.1-.76,13.67-1.52l8.05,26.58c-4.71,1.37-21.42.91-25.82.3s-17.62,2.58-18.23,1.67-3.95-1.06-6.68-1.37-2.89-.61-3.04-2.58,3.65-5.62,6.23-5.32c0,0,0-3.19,1.37-3.65Z" />
        <path class="d"
            d="m186.44,530.11l34.94,22.33,3.65,11.39c-3.34,3.19-7.29,4.56-12.3,4.56s-5.16,2.13-17.01,5.62-18.99-6.84-22.33-13.06-2.58-15.95,12-21.72c-5.01-1.37-5.01-4.86,1.06-9.11Z" />
        <path class="d"
            d="m457.09,557.23c1.59-5.47,6.38-11.16,11.73-15.61,1.82.46,3.08,2.28,3.08,2.28l.11-.8c.91-6.15-9.57-9.11-18.66-13.09l3.74,27.22Z" />
        <path class="i"
            d="m224.57,569.46s-5.62-7.59-4.25-17.32l16.71-35.24,44.96-.61,35.24,2.43,52.86-17.32,30.38-5.77,39.8,11.85,16.1,21.87c.15,4.86,1.82,7.75,1.82,13.06s.3,32.66,1.67,36.15,3.65,7.44,3.65,14.13,4.25,9.57.61,11.24-5.01,2.43-6.53,5.01l.61-15.95c-1.67-2.28-17.62-5.77-22.33-5.77s-31.9,8.05-34.33,8.81-24.61,23.39-25.97,23.09-1.67-8.2-1.67-8.2l-7.03,7.71,1.48,6.72-5.7,2.51-1.14-2.51s-13.44-11.85-16.63-12.3c0,0-7.52-.68-22.1,1.14s-34.63,15.95-47.32,24.68c-3.04,2.58-9.57,12-12.3,12.76s-12.91-6.68-17.16-7.59v6.99c-2.43,0-8.51-1.37-10.94-2.58s-10.48-5.77-13.82-6.08c0-6.08-8.66-14.89-13.06-22.94s-1.67-10.63-.46-14.58,5.92-16.1,8.05-19.44l8.51-6.23.3-9.72Z" />
        <path class="k"
            d="m457.28,351.03c-4.56-7.29-17.92-25.82-34.63-61.97l-3.04,37.59c11.39,16.63,32.35,46.48,32.35,46.48.8,22.32-1.2,49.88-17.42,61.01,2.85-6.98,3.45-15.66,2.71-24.71,14.04-26.32.46-42.68-13.85-55.82l.15,3.34c13.07,8.57,25.99,27.15,13.68,52.27-1.24-14.79-6.01-30.55-10.34-41.56l-6.84,41.24,2.96,10.25.46,22.78,3.97-.84,1.73,7.22c4.56,0,14.13-.91,24.15-11.85-5.01,10.94-3.87,14.58-19.82,15.95,17.77.23,23.24-7.52,31.22-27.57,7.97-20.05,1.59-46.25-2.28-64.03,10.46,14.52,14.35,27.27,9.11,47.01,11.85-33.42-9.72-49.52-14.28-56.81Z" />
        <polygon class="k"
            points="285.94 195.78 281.84 202.47 285.18 207.33 304.92 188.34 282.29 164.04 273.18 174.82 285.94 195.78" />
        <path class="e"
            d="m275.47,220.55c-1.53,12.14.6,49.82.6,49.82,0,0,12,26.43,13.22,27.8s28.86,32.81,28.86,32.81l19.14-44.66,15.04-56.96-57.8-31.9c-9.57,0-19.05,23.1-19.05,23.1Z" />
        <path class="d"
            d="m318.9,327.94c2.13-9.11,15.95-56.51,15.49-76.41,6.68-2.58,10.33-3.95,10.33-3.95l-3.95-8.35,10.03-3.65,5.7,5.16-9.57,173.85,43.97,82.48s.23,8.43-5.92,6.61-16.18,5.01-19.82,4.56-46.48,15.49-46.48,15.49c0,0-50.13.91-53.54-.46s-15.72-3.42-25.05-.67l-3.96,3.71,41.32-109.97s-7.59-50.13-10.33-85.67-1.22-76.86-1.22-76.86l5.77-35.85,3.63,2.3c1.08,21.85.78,33.7,1.84,42.21s14.43,36,25.97,48.46,15.8,17.01,15.8,17.01Z" />
        <path class="f"
            d="m184.01,337.05c4.1,6.53,9.11,18.08,9.27,26.73s2.58,32.35,4.56,38.13,3.99,14.74,3.95,17.32c0,14.73-3.65,26.73-3.95,31.14-1.67,5.47-5.92,12.46-5.77,15.8,2.73,5.92-1.52,16.56-3.04,28.41s-3.64,32.47-3.19,37.12l-.31-.51s4.56,8.05,13.52,14.28,14.73,9.42,18.53,10.03,13.67-7.44,13.37-9.27,4.1-9.72,6.38-16.25c3.95-11.85,44.96-110.89,44.96-110.89-3.65-8.81-11.24-93.57-11.24-93.57-5.47-32.81-2.73-73.52,1.82-103.22,2.96-1.37,10.25-11.85,10.94-18.68,0,0-38.33,7.73-75.65,12.08,0,0-7.75,6.84-10.94,16.41s-16.86,66.53-16.86,66.53l3.65,38.43Z" />
        <path class="f"
            d="m409.13,226.01c-6.39-10-14.81-8.73-22.78-8.73l-13.82-4.78-34.63,14.28c6.68,3.04,12.46,4.86,12.15,24s-.61,72.61-1.97,95.7-7.14,61.37-6.23,66.53,37.06,72.61,37.06,72.61l12.15,54.08,7.9,4.25s13.37-14.89,17.32-18.23,18.84-13.67,18.84-13.67c2.96,5.54,21.65,20.81,21.65,20.81l.91-1.37.23-2.51s-12.76-42.61-15.04-54.91c-.5-2.45-4.56-19.37-12.99-34.86-1.59-3.05,2.51-20.96,2.51-20.96l-6.61-5.24c2.28-18.23,5.47-44.2-2.28-76.33-1.21-5.41,1.82-37.59,2.28-56.05.03-.98-.23-1.9-4.66-1.91-.33-28.27-5.29-35.99-11.97-52.7Z" />
        <path class="m"
            d="m351.86,407.53c-4.75,1.75-3.34,6.08-1.82,7.59s7.75,5.62,7.59-.46-2.89-8.2-5.77-7.14Z" />
        <path class="m"
            d="m377.38,461c.15-3.65,2.73-4.41,4.1-3.95s4.71,1.37,5.47,7.29-7.75,3.95-8.81,1.06-.76-4.41-.76-4.41Z" />
        <path class="h"
            d="m395.23,105.18l-48.76-18.23-53.09,48.99-10.78,34.33c2.15,5.98,5.46,12.58,9.3,19.18-.57,11.84-.75,18.15-3.52,19.86,1.06,8.51,15.34,26.58,15.34,26.58,0,0,4.71,21.27,3.49,29.92,1.97,2.58,4.25,3.04,6.68,1.67,1.97-2.13,8.2-17.16,9.87-27.65,0,0,3.31-3.2,8.58-9.79,11.49-2.91,33.32-9.8,38.82-13.61l2.43,1.52s27.11-27.8,30.99-47.62c3.87-19.82-9.34-65.16-9.34-65.16Z" />
        <path class="k"
            d="m410.49,380.19c21.87,5.32,30.08,1.22,30.08,1.22-28.65.51-54.39-21.49-70.24-53.57,20.26-26.33,24.65-62.15,26.53-89.51,3.64-2.09,6.51-7.8,7.11-17.02,5.01,7.29,11.12,19.25,11.26,20.79-.54-4.97,2.6-20.58,6.12-38.01,1.08,5.37,2.01,10.71,2.75,15.98-1.8,3.97-3.98,8-6.61,12.17,2.62-2.94,4.9-6.27,6.91-9.92,3.62,27.88,1.66,53.59-12.3,70.83,15.84-17.49,16.62-45.85,13.08-72.28,12.16-23.55,12.93-60.37,9.32-102.86-4.25-50.13-27.65-67.44-41.01-78.68-13.37-11.24-63.8-20.05-96.91,4.86-27.14,21.45-41.97,76.33-55.14,106.64-15.82,13.26-43.71,29.22-61.98,54.81-1.68.77-3.17,1.45-4.4,2-11.54,5.16-56.2,22.48-73.82,33.72-5.21,3.33-9.46,7.66-12.85,12.44-2.34.18-4.73.3-7.2.32-28.71.3-38.58-19.75-33.87-28.56s8.35-11.24,16.25-10.33c-10.48-1.52-19.76,2.73-20.66,17.32s16.56,24.3,35.7,23.39c2.89-.14,5.86-.42,8.85-.79-7.39,11.09-10.32,24.17-9.91,32.39.1,1.94.27,3.97.54,6.01-8.6,12.06-14.49,25.97-13.9,42.29.58,15.99,5.13,28.67,12.67,35.85-9.3,16.67-18.59,20.22-34.84,12.45,0,0,15.56,23.21,39.32-9.04,2.13,1.26,4.43,2.15,6.9,2.65,2.6,10.92,8.05,19.95,15.22,25.21v-.35c.37,13.67,4.14,24.9,12.68,31.36l-2.13-15.49,5.47,11.24c-1.88-5.87-2.17-13.29-.92-21.79h-.49c5.44.01,11.27-1.86,17.22-6.04,3.25,18.93,14.07,34.15,42.52,39.07-16.94-3.14-21.72-17.9-19.68-36.04,11.29,1.91,16.21-.67,20.9-2.54-4.86.61-12.46-.61-16.25-6.38,7.75,2.58,12.15,1.37,17.92-.15-13.24-.39-18.16-.23-19.21-7.37.57-1.99,1.19-3.99,1.86-5.99,6.52,5.09,13.99,4.4,22.25,1.88-14.08,1.65-16.18,1.9-21.43-4.27.66-1.86,1.36-3.71,2.09-5.55,5.22-.1,11.81-.65,18.08-2.24-4.17.74-10.32.09-16.85-.75,5.22-12.4,11.97-24.22,18.83-33.27,0,0-.91-3.65.91-5.01,1.82-1.37-.23-17.32-2.73-28.94l25.29-30.08c28.67-11.78,44.12-37.43,54.16-63,9.41-2.85,11.91-5.58,20.35-5.12l2.51-7.52,4.78.23.2-7.91s-5.22-8.04-9.16-20.65c3.49-5.16,8.51-19.14,12.46-32.66-1.06,28.41-3.8,48.61,10.78,54.08-13.82-6.84-9.87-32.81-6.11-56.71,13.44-8.61,35.64-31.05,48.74-47-8.61,18.49-11.04,35.65-12.41,45.83-1.37,10.18-.76,36.3,6.23,40.71-1.82-3.95-3.95-24.15,1.52-43.9-1.08,15.45.52,26.01,5.35,33.98l.19.31c-1.7.56-3.47.79-5.39.65,2.8,1.06,5.21,1.96,7.47,2.31,3.11,3.92,7.17,7.18,12.28,10.15-1.52-1.97-.76-15.65-.76-15.65,6.19-4.02,9.98-10.37,14.74-22.38,1.21,1.38,2.42,2.69,3.62,3.93-2.29,10.39-5.33,18-6.66,20.27,3.76-2.9,7.01-9.05,9.88-17.05,5.62,5.44,10.49,9.14,12.38,10.52-2.31-1.82-6.68-6.57-11.28-13.71,3.25-9.9,6-22.07,8.47-34.29.61,21.11,4.41,48.46,8.96,56.35-.76,14.43-9.42,20.96-12.91,27.95-3.49,6.99-9.11,17.77-18.99,22.48-1.22,13.67-6.68,22.33-9.42,39.8-1.62,10.35-3.88,23-3.97,35.09-.77,12.33-.6,30.27,2.27,46.64-3.61,3.38-7.58,6.26-11.97,8.5-9.26,4.74-16.55,6.16-22.29,5.57v.02c5.01,3.13,12.64,2.45,24.11-5.14,3.73-2.47,7.16-5.17,10.31-8.05,2.17,11.92,5.79,22.93,11.56,30.23,13.82,17.47,39.8,41.16,74.58,20.35-16.1,3.04-22.03-.91-35.85-9.27Zm14.33-161.8c-.84-5.78-1.86-11.44-2.97-16.86,3.7-18.33,7.64-38.16,8.08-49.49,2.5,26.03,3.96,45.26-5.11,66.35Zm-184.21-65.72c-2.03,4.53-4.02,8.44-6.02,11.52-13.19,20.31-39.66,34.21-53.96,40.9,15.73-20.39,43.75-40.29,59.98-52.42Zm-15.14,63.47c-5.32,4.86-25.82,25.67-27.65,29.47l.09-.17c2.37-5.49,3.1-7.57,5.99-18.66,2.89-11.09,9.57-10.48,21.57-10.63Zm-133.37,38.89c.17-.21.35-.41.52-.62,15.15-2.46,30.38-7.3,40.34-11.68-8.21,4.87-18.45,12.29-25.13,21.44-5.77,4.16-10.53,7.91-13.91,11.21-4.35,4.25-8.57,8.77-12.42,13.59-.51-11.68,2.35-23.8,10.6-33.95Zm-10.24,119.31c1.56-2.16,3.15-4.55,4.77-7.21.22,3.59.74,7.05,1.5,10.35-2.42-.66-4.48-1.74-6.27-3.14Zm3.25-20.57c-2.53,6.26-4.93,11.62-7.31,16.12-8.94-13.57-5.45-41.42-1.2-67.16,0,0-.41-.53,2.47-3.22,1.88,8.68,5.53,16.8,11.7,20.17-3.91-6.42-7.01-14.42-8.45-22.96,5.91-4.76,17.86-13.2,41.97-28.01-35.54,36.46-35.71,63.88-39.19,85.06Zm18.53,41.01h-.11s0-.06,0-.09c-1.04-.94-9.62-9.14-9.62-25.12,0-9.95-.2-19.07,8.02-32.17-.99,13.04.39,20.62,7.17,25.82-3,10.92-5,21.65-5.57,31.47.07.06.1.09.1.09Zm6.09-33.79c-8.53-9.46-5.11-22.25-1.25-32.62,6.05-7.43,14.62-16.09,26.76-26.55-10.04,16.9-19.54,38.3-25.51,59.17Zm9.78,41.4c1.99-9.4,5.67-19.9,10.97-30.95,1.35.31,2.76.6,4.24.87-.84,10.16-1.06,20.21.49,29.38-4.16,1.57-9.41,1.55-15.7.7Zm15.21-30.16c-1.46-.3-2.85-.6-4.19-.9,1.62-3.38,3.39-6.81,5.31-10.27-.42,3.71-.81,7.45-1.12,11.17Zm-19.02-113.57c9.23-10.65,20.72-17.89,37.26-24.71-13.62,9.08-26.57,17.4-37.26,24.71Zm40.68-26.99c-24.41,9.91-41.62,18.84-62.8,21.59,22.7-26.69,45.67-25.48,80.83-39.88-1.75,2.97-3.36,6.05-4.81,9.27-4.43,3.08-8.85,6.09-13.22,9.02Zm14.62-9.99c1.03-2.84,2.43-5.71,4.14-8.59,6.69-2.77,13.81-6.1,21.46-10.3-8.26,6.52-16.93,12.83-25.6,18.89Zm46.03,33.44c-11.84,8.12-20.19,14-25.29,17.93,0,0-.15-4.64-.35-5.58,3.41-5.94,7.93-13.63,12.2-21.7,4.29-8.11,13.51-17.58,24.62-28.7,10.47-.24,12.43.63,20.22-1.63-8.43,16.77-19.36,31.4-31.4,39.67Zm162.93-121.09c1.26-3.38,2.6-7.12,4.09-11.29-.21,5.58-.84,10.92-1.7,15.82-.81-1.44-1.6-2.96-2.39-4.54Zm17.76,89.88l4.25-14.13c0,12.91-.34,22.67-5.05,27.35.31-4.7.56-9.14.8-13.23Zm-12.88,9.56s5.44-10.31,7.26-16.09c-.61,9.42-2.28,22.94-5.62,21.87-3.34-1.06-4.25-1.67-1.37-6.23l-.28.44Zm-22.36,75.36c-2.89-21.42,7.75-46.63,17.92-68.51,3.49-.46,0,0,5.62,2.13s7.75-4.56,9.87-12.61c-.21,2.58-.46,5.52-.77,8.74-.42.26-.87.48-1.35.68.44-.01.87-.09,1.3-.19-2.32,23.68-7.95,62.2-25.37,87.54-2.72-5.65-5.15-11.59-7.23-17.77Z" />
        <path class="h"
            d="m271.96,153.71c.91-4.33,4.78-16.86,6.84-28.94-7.29.23-11.62,10.03-11.62,14.81s2.05,13.67,4.78,14.13Z" />
        <path class="i"
            d="m344.87,302.87s-.3-1.06-.61-8.05c-.3-6.99,1.82-17.92,1.37-35.7-6.34-.22-13.67.71-21.25,4.74,1.28-4.11,3.41-9.79,3.41-9.79l-1.03.46-5.92,2.05c-1.03,7.52-4.82,13.03-4.82,13.03l-7.44-.3s.9-1.51-.74-2.76c-3.63-.79-13.23-14.25-13.23-14.25l-1.37,3.8c3.04,4.86,5.32,7.9,6.53,11.09-9.11-3.19-22.03-6.38-26.13-4.25-1.82,3.95,2.28,20.2,6.08,28.56s3.34,14.28,0,18.08-5.01,9.72,1.37,11.54c6.38,1.82,9.11,10.48,12.91,4.25,3.8-6.23,11.54-28.86,11.85-31.44.3-2.58,3.34-2.73,3.19-11.09l5.32.15c1.37,6.84,1.52,6.38,2.73,6.84,1.22.46,6.99,16.56,7.59,24.3,1.52,7.59,3.34,11.09,4.56,10.78,3.34-.46,10.03-7.44,14.73-11.39,4.71-3.95,5.31-5.76.91-10.63Z" />
    </g>
    <g id="c">
        <path class="j"
            d="m462.14,26.87l-30.38-14.89-.91,3.04,29.16,13.67-20.05,21.57s17.92-4.86,21.87-9.11c0,0,4.56,13.06,8.81,15.8l3.04,10.33s6.38-6.08,6.08-15.19-2.13-13.37-2.13-13.37c0,0,23.39,12.46,40.1,10.33,0,0-19.75-12.76-33.72-17.01l25.22-12.76s-23.39-1.52-32.51,3.95l-2.73-13.37-11.85,17.01Z" />
        <path class="j"
            d="m74.49,187.28l-.91,3.04,14.28,4.56-9.11,11.85,10.63-6.38,4.86,13.06s3.65-6.68,2.73-12.46c0,0,13.37,4.56,17.01,4.56,0,0-6.08-5.47-14.28-8.81l10.63-5.16s-14.28.91-15.8,2.43v-7.9l-4.56,6.68-2.35-.08-13.14-5.39Z" />
        <path class="j"
            d="m169.57,405.3l1.23,10.43-4.25.3,5.77,5.47-5.77,7.29-2.73.61,2.73,2.13,6.68-8.2-1.52,6.38,4.56-.3s.61,3.95,4.56,5.16l.3-7.29s7.29,2.43,11.85,1.82l-9.11-6.99s6.38-2.43,10.03-8.2c0,0-7.9-.91-10.94.3l-.91-10.03-6.08,8.51-6.39-7.4Z" />
        <path class="j"
            d="m471.1,265.13l-5.01,2.28,8.2,5.92-8.66,7.29-3.19-.23v2.28l4.78-.68,5.24-5.24-.68,5.7,4.78-1.37,3.87,7.29,2.28-9.57,10.71,3.87s-2.96-5.92-7.97-7.75l10.25-9.8-12.53.23-1.14-9.8-5.92,9.11s-3.19-9.57-5.24-10.25l.23,10.71Z" />
    </g>
</svg>